<svg width="63" height="23" viewBox="0 0 63 23" fill="none" xmlns="http://www.w3.org/2000/svg">
<path d="M8.688 19.1769L8.676 14.1489L6.204 18.2889H5.34L2.868 14.2449V19.1769H1.044V10.7769H2.652L5.796 15.9969L8.892 10.7769H10.5L10.512 19.1769H8.688ZM15.4787 19.2729C14.7987 19.2729 14.1867 19.1329 13.6427 18.8529C13.1067 18.5649 12.6867 18.1689 12.3827 17.6649C12.0787 17.1609 11.9267 16.5889 11.9267 15.9489C11.9267 15.3089 12.0787 14.7369 12.3827 14.2329C12.6867 13.7289 13.1067 13.3369 13.6427 13.0569C14.1867 12.7689 14.7987 12.6249 15.4787 12.6249C16.1587 12.6249 16.7667 12.7689 17.3027 13.0569C17.8387 13.3369 18.2587 13.7289 18.5627 14.2329C18.8667 14.7369 19.0187 15.3089 19.0187 15.9489C19.0187 16.5889 18.8667 17.1609 18.5627 17.6649C18.2587 18.1689 17.8387 18.5649 17.3027 18.8529C16.7667 19.1329 16.1587 19.2729 15.4787 19.2729ZM15.4787 17.7369C15.9587 17.7369 16.3507 17.5769 16.6547 17.2569C16.9667 16.9289 17.1227 16.4929 17.1227 15.9489C17.1227 15.4049 16.9667 14.9729 16.6547 14.6529C16.3507 14.3249 15.9587 14.1609 15.4787 14.1609C14.9987 14.1609 14.6027 14.3249 14.2907 14.6529C13.9787 14.9729 13.8227 15.4049 13.8227 15.9489C13.8227 16.4929 13.9787 16.9289 14.2907 17.2569C14.6027 17.5769 14.9987 17.7369 15.4787 17.7369ZM20.3063 12.7209H22.1663V16.5609L25.3103 12.7209H27.0263V19.1769H25.1663V15.3369L22.0343 19.1769H20.3063V12.7209ZM23.5463 12.0249C22.1383 12.0249 21.4303 11.4049 21.4223 10.1649H22.6463C22.6543 10.4449 22.7303 10.6649 22.8743 10.8249C23.0263 10.9769 23.2463 11.0529 23.5343 11.0529C23.8223 11.0529 24.0423 10.9769 24.1943 10.8249C24.3543 10.6649 24.4343 10.4449 24.4343 10.1649H25.6823C25.6743 11.4049 24.9623 12.0249 23.5463 12.0249ZM48.842 19.2729C48.162 19.2729 47.55 19.1329 47.006 18.8529C46.47 18.5649 46.05 18.1689 45.746 17.6649C45.442 17.1609 45.29 16.5889 45.29 15.9489C45.29 15.3089 45.442 14.7369 45.746 14.2329C46.05 13.7289 46.47 13.3369 47.006 13.0569C47.55 12.7689 48.162 12.6249 48.842 12.6249C49.522 12.6249 50.13 12.7689 50.666 13.0569C51.202 13.3369 51.622 13.7289 51.926 14.2329C52.23 14.7369 52.382 15.3089 52.382 15.9489C52.382 16.5889 52.23 17.1609 51.926 17.6649C51.622 18.1689 51.202 18.5649 50.666 18.8529C50.13 19.1329 49.522 19.2729 48.842 19.2729ZM48.842 17.7369C49.322 17.7369 49.714 17.5769 50.018 17.2569C50.33 16.9289 50.486 16.4929 50.486 15.9489C50.486 15.4049 50.33 14.9729 50.018 14.6529C49.714 14.3249 49.322 14.1609 48.842 14.1609C48.362 14.1609 47.966 14.3249 47.654 14.6529C47.342 14.9729 47.186 15.4049 47.186 15.9489C47.186 16.4929 47.342 16.9289 47.654 17.2569C47.966 17.5769 48.362 17.7369 48.842 17.7369ZM59.9695 19.1769V15.3129L58.0375 18.5529H57.2455L55.3615 15.3009V19.1769H53.6695V12.7209H55.6255L57.6895 16.4529L59.8855 12.7209H61.6375L61.6615 19.1769H59.9695Z" fill="black"/>
<rect x="30.1971" y="14.164" width="12.8083" height="4.31275" rx="1.25" fill="white" stroke="black" stroke-width="1.5"/>
<path d="M39.4348 3.89329C39.4348 3.5331 39.7268 3.24111 40.087 3.24111V3.24111C40.4471 3.24111 40.7391 3.5331 40.7391 3.89329V6.50198C40.7391 6.86217 40.4471 7.15416 40.087 7.15416V7.15416C39.7268 7.15416 39.4348 6.86217 39.4348 6.50198V3.89329Z" fill="#494949"/>
<path d="M37.5825 3.37503L41.6184 10.3654C42.0996 11.1987 41.4981 12.2404 40.5359 12.2404H32.4641C31.5019 12.2404 30.9004 11.1987 31.3816 10.3654L35.4175 3.37503C35.8986 2.5417 37.1014 2.5417 37.5825 3.37503Z" stroke="url(#paint0_linear_9:50)" stroke-width="1.5"/>
<defs>
<linearGradient id="paint0_linear_9:50" x1="36.5" y1="3.05176e-05" x2="36.5" y2="17.3205" gradientUnits="userSpaceOnUse">
<stop stop-color="#FFF6B7"/>
<stop offset="1" stop-color="#F6416C"/>
</linearGradient>
</defs>
</svg>
