<svg width="63" height="24" viewBox="0 0 63 24" fill="none" xmlns="http://www.w3.org/2000/svg">
<rect x="26" y="20.3791" width="6" height="3" fill="white"/>
<path d="M40 5.80278C40 5.35941 40.3594 4.99999 40.8028 4.99999V4.99999C41.2462 4.99999 41.6056 5.35941 41.6056 5.80278V9.01393C41.6056 9.4573 41.2462 9.81672 40.8028 9.81672V9.81672C40.3594 9.81672 40 9.4573 40 9.01393V5.80278Z" fill="#494949"/>
<path d="M37.0981 3.50003L42.866 13.4904C43.2509 14.1571 42.7698 14.9904 42 14.9904H30.4641C29.6943 14.9904 29.2132 14.1571 29.5981 13.4904L35.366 3.50003C35.7509 2.83336 36.7132 2.83336 37.0981 3.50003Z" stroke="#FFF6B7" stroke-width="2"/>
<circle cx="35.0011" cy="9.44976" r="0.61547" fill="#494949"/>
<circle cx="37.463" cy="9.44976" r="0.61547" fill="#494949"/>
<circle cx="35.0011" cy="11.9117" r="0.61547" fill="#494949"/>
<circle cx="37.463" cy="11.9117" r="0.61547" fill="#494949"/>
<path d="M8.688 16L8.676 10.972L6.204 15.112H5.34L2.868 11.068V16H1.044V7.6H2.652L5.796 12.82L8.892 7.6H10.5L10.512 16H8.688ZM15.7187 16.096C15.0387 16.096 14.4267 15.956 13.8827 15.676C13.3467 15.388 12.9267 14.992 12.6227 14.488C12.3187 13.984 12.1667 13.412 12.1667 12.772C12.1667 12.132 12.3187 11.56 12.6227 11.056C12.9267 10.552 13.3467 10.16 13.8827 9.88C14.4267 9.592 15.0387 9.448 15.7187 9.448C16.3987 9.448 17.0067 9.592 17.5427 9.88C18.0787 10.16 18.4987 10.552 18.8027 11.056C19.1067 11.56 19.2587 12.132 19.2587 12.772C19.2587 13.412 19.1067 13.984 18.8027 14.488C18.4987 14.992 18.0787 15.388 17.5427 15.676C17.0067 15.956 16.3987 16.096 15.7187 16.096ZM15.7187 14.56C16.1987 14.56 16.5907 14.4 16.8947 14.08C17.2067 13.752 17.3627 13.316 17.3627 12.772C17.3627 12.228 17.2067 11.796 16.8947 11.476C16.5907 11.148 16.1987 10.984 15.7187 10.984C15.2387 10.984 14.8427 11.148 14.5307 11.476C14.2187 11.796 14.0627 12.228 14.0627 12.772C14.0627 13.316 14.2187 13.752 14.5307 14.08C14.8427 14.4 15.2387 14.56 15.7187 14.56ZM20.7862 9.544H22.6462V13.384L25.7902 9.544H27.5063V16H25.6462V12.16L22.5142 16H20.7862V9.544ZM24.0262 8.848C22.6182 8.848 21.9102 8.228 21.9022 6.988H23.1262C23.1342 7.268 23.2102 7.488 23.3542 7.648C23.5062 7.8 23.7262 7.876 24.0142 7.876C24.3022 7.876 24.5222 7.8 24.6742 7.648C24.8342 7.488 24.9142 7.268 24.9142 6.988H26.1622C26.1542 8.228 25.4422 8.848 24.0262 8.848Z" fill="#494949"/>
<path d="M48.924 16.096C48.244 16.096 47.632 15.956 47.088 15.676C46.552 15.388 46.132 14.992 45.828 14.488C45.524 13.984 45.372 13.412 45.372 12.772C45.372 12.132 45.524 11.56 45.828 11.056C46.132 10.552 46.552 10.16 47.088 9.88C47.632 9.592 48.244 9.448 48.924 9.448C49.604 9.448 50.212 9.592 50.748 9.88C51.284 10.16 51.704 10.552 52.008 11.056C52.312 11.56 52.464 12.132 52.464 12.772C52.464 13.412 52.312 13.984 52.008 14.488C51.704 14.992 51.284 15.388 50.748 15.676C50.212 15.956 49.604 16.096 48.924 16.096ZM48.924 14.56C49.404 14.56 49.796 14.4 50.1 14.08C50.412 13.752 50.568 13.316 50.568 12.772C50.568 12.228 50.412 11.796 50.1 11.476C49.796 11.148 49.404 10.984 48.924 10.984C48.444 10.984 48.048 11.148 47.736 11.476C47.424 11.796 47.268 12.228 47.268 12.772C47.268 13.316 47.424 13.752 47.736 14.08C48.048 14.4 48.444 14.56 48.924 14.56ZM60.0516 16V12.136L58.1196 15.376H57.3276L55.4436 12.124V16H53.7516V9.544H55.7076L57.7716 13.276L59.9676 9.544H61.7196L61.7436 16H60.0516Z" fill="#494949"/>
</svg>
