<svg width="11" height="11" viewBox="0 0 11 11" fill="none" xmlns="http://www.w3.org/2000/svg">
<path d="M10.5956 9.69936L8.20664 7.31035C8.78181 6.54466 9.0923 5.61265 9.09125 4.655C9.09125 2.20887 7.10113 0.21875 4.655 0.21875C2.20887 0.21875 0.21875 2.20887 0.21875 4.655C0.21875 7.10113 2.20887 9.09125 4.655 9.09125C5.61265 9.0923 6.54466 8.78181 7.31035 8.20664L9.69936 10.5956C9.82029 10.7037 9.97801 10.7615 10.1402 10.7569C10.3023 10.7524 10.4565 10.6859 10.5712 10.5712C10.6859 10.4565 10.7524 10.3023 10.7569 10.1402C10.7615 9.97801 10.7037 9.82029 10.5956 9.69936ZM1.48625 4.655C1.48625 4.02828 1.67209 3.41564 2.02028 2.89454C2.36847 2.37344 2.86336 1.96729 3.44237 1.72746C4.02138 1.48762 4.65851 1.42487 5.27319 1.54714C5.88787 1.6694 6.45249 1.9712 6.89564 2.41436C7.3388 2.85751 7.6406 3.42213 7.76286 4.03681C7.88513 4.65148 7.82238 5.28861 7.58254 5.86763C7.34271 6.44664 6.93656 6.94153 6.41546 7.28972C5.89436 7.63791 5.28172 7.82375 4.655 7.82375C3.8149 7.82274 3.00951 7.48857 2.41547 6.89453C1.82143 6.30049 1.48726 5.4951 1.48625 4.655Z" fill="white"/>
</svg>
